<?xml version="1.0" encoding="UTF-8"?>
<svg version="1.1" xmlns="http://www.w3.org/2000/svg" width="636" height="636">
<path d="M0 0 C1.02432632 -0.00701431 2.04865265 -0.01402863 3.10401917 -0.02125549 C6.39100593 -0.03866045 9.67781259 -0.04510755 12.96484375 -0.046875 C14.08727478 -0.04754974 15.20970581 -0.04822449 16.3661499 -0.04891968 C32.73587862 -0.03326537 48.74986353 0.28777155 64.90234375 3.203125 C65.88058105 3.37473145 66.85881836 3.54633789 67.86669922 3.72314453 C112.10592731 11.69603811 156.07528794 28.0709172 192.90234375 54.203125 C193.74563232 54.79963867 193.74563232 54.79963867 194.60595703 55.40820312 C210.3401471 66.58899455 225.02983402 78.78431255 238.90234375 92.203125 C239.64919434 92.92508057 239.64919434 92.92508057 240.41113281 93.66162109 C245.85213535 98.94948909 251.04198372 104.37818485 255.90234375 110.203125 C256.3597998 110.74678711 256.81725586 111.29044922 257.28857422 111.85058594 C301.73238392 164.83534866 331.78374636 234.53045872 332.10546875 304.30078125 C332.11252838 305.32488098 332.11958801 306.34898071 332.12686157 307.40411377 C332.35409149 350.04342379 332.35409149 350.04342379 328.90234375 369.203125 C328.70898438 370.32203125 328.515625 371.4409375 328.31640625 372.59375 C320.84794399 414.82283289 305.33897409 455.24619513 281.90234375 491.203125 C281.38381836 491.99879883 280.86529297 492.79447266 280.33105469 493.61425781 C273.46621195 504.06219345 266.2162072 513.87014281 257.90234375 523.203125 C256.69359125 524.59859536 255.4852043 525.99438253 254.27734375 527.390625 C253.15388243 528.66281879 252.02882204 529.93360185 250.90234375 531.203125 C250.24105469 531.95722656 249.57976563 532.71132813 248.8984375 533.48828125 C240.5015202 542.96673352 231.65728361 552.1116931 221.90234375 560.203125 C221.36158203 560.65768066 220.82082031 561.11223633 220.26367188 561.58056641 C167.27800219 606.02965598 97.57952437 636.0848834 27.8046875 636.40625 C26.78036118 636.41326431 25.75603485 636.42027863 24.70066833 636.42750549 C21.41368157 636.44491045 18.12687491 636.45135755 14.83984375 636.453125 C13.71741272 636.45379974 12.59498169 636.45447449 11.4385376 636.45516968 C-4.93119112 636.43951537 -20.94517603 636.11847845 -37.09765625 633.203125 C-38.07589355 633.03151855 -39.05413086 632.85991211 -40.06201172 632.68310547 C-84.30123981 624.71021189 -128.27060044 608.3353328 -165.09765625 582.203125 C-165.65984863 581.80544922 -166.22204102 581.40777344 -166.80126953 580.99804688 C-182.5354596 569.81725545 -197.22514652 557.62193745 -211.09765625 544.203125 C-211.59555664 543.72182129 -212.09345703 543.24051758 -212.60644531 542.74462891 C-218.04744785 537.45676091 -223.23729622 532.02806515 -228.09765625 526.203125 C-228.5551123 525.65946289 -229.01256836 525.11580078 -229.48388672 524.55566406 C-273.92753597 471.57109263 -303.97943614 401.87563988 -304.30078125 332.10546875 C-304.30779556 331.08114243 -304.31480988 330.0568161 -304.32203674 329.00144958 C-304.3394417 325.71446282 -304.3458888 322.42765616 -304.34765625 319.140625 C-304.34833099 318.01819397 -304.34900574 316.89576294 -304.34970093 315.73931885 C-304.33404662 299.36959013 -304.0130097 283.35560522 -301.09765625 267.203125 C-300.9260498 266.2248877 -300.75444336 265.24665039 -300.57763672 264.23876953 C-292.60474314 219.99954144 -276.22986405 176.03018081 -250.09765625 139.203125 C-249.50114258 138.35983643 -249.50114258 138.35983643 -248.89257812 137.49951172 C-237.7117867 121.76532165 -225.5164687 107.07563473 -212.09765625 93.203125 C-211.61635254 92.70522461 -211.13504883 92.20732422 -210.63916016 91.69433594 C-205.35129216 86.2533334 -199.9225964 81.06348503 -194.09765625 76.203125 C-193.55399414 75.74566895 -193.01033203 75.28821289 -192.45019531 74.81689453 C-139.46562388 30.37324528 -69.77017113 0.32134511 0 0 Z " fill="#000000" transform="translate(304.09765625,-0.203125)"/>
<path d="M0 0 C0.66 0 1.32 0 2 0 C2.60700125 4.33294093 3.21018364 8.66640548 3.8125 13 C3.90469818 13.65990936 3.99689636 14.31981873 4.09188843 14.99972534 C5.0216031 21.66051647 5.94661997 28.31883602 6.6875 35.00390625 C8.5651482 51.8599992 11.81162041 68.38554521 15.18945312 84.99316406 C15.88067983 88.39533937 16.54686214 91.80182464 17.203125 95.2109375 C19.15497634 105.32381659 19.15497634 105.32381659 22.94921875 114.86328125 C24.26084631 117.53041981 25.23297864 120.26994303 26.25 123.0625 C36.68387078 150.32416846 53.76254076 173.42836682 80.89770508 185.87011719 C82.59220695 186.59489952 84.29569161 187.29858788 86 188 C87.5778125 188.7425 87.5778125 188.7425 89.1875 189.5 C93.3097531 191.28384495 97.6295978 192.15814302 101.98828125 193.1875 C104.66393138 193.90933557 106.98414334 194.79757203 109.5 195.9375 C115.24215617 198.37187689 121.23717735 199.39174945 127.34179688 200.51733398 C131.85717636 201.35210626 136.29339012 202.30787832 140.73828125 203.46484375 C147.53841431 205.19579657 154.38706205 206.38921181 161.3125 207.5 C161.96920685 207.60672028 162.6259137 207.71344055 163.30252075 207.82339478 C175.10845847 209.72877841 186.93120807 211.02351726 198.84692383 212.01171875 C205.1068713 212.54324331 210.96608922 213.22532036 217 215 C214.09060825 216.9395945 213.09830994 217.31324919 209.80078125 217.7109375 C208.50527344 217.87335938 208.50527344 217.87335938 207.18359375 218.0390625 C206.23613281 218.14992188 205.28867187 218.26078125 204.3125 218.375 C203.31734375 218.49875 202.3221875 218.6225 201.296875 218.75 C197.86557817 219.17526401 194.43298285 219.58857352 191 220 C186.19035484 220.57734337 181.38133179 221.15943394 176.5730896 221.74835205 C174.56015384 221.99269805 172.54632101 222.22961829 170.5324707 222.46630859 C161.56881006 223.5559266 152.83126372 225.12988013 144 227 C142.34930373 227.33244877 140.69831279 227.66344203 139.046875 227.9921875 C123.20682246 231.21836617 107.78362058 235.13149492 92.58422852 240.67700195 C88.74038899 242.07665451 85.06318144 243.37489516 81 244 C81 244.66 81 245.32 81 246 C79.6078125 246.5259375 79.6078125 246.5259375 78.1875 247.0625 C62.42295468 253.95358867 48.21541053 266.58660456 39 281 C38.44820068 281.86286621 38.44820068 281.86286621 37.88525391 282.74316406 C16.29538698 317.13621729 10.44497592 361.13839506 5.44140625 400.64379883 C4.97370686 404.19991804 4.44966946 407.74530719 3.921875 411.29296875 C3.07011831 417.18715786 2.62218992 422.95632985 2.43359375 428.90820312 C2.35662546 430.60987165 2.18740874 432.30693241 2 434 C1.34 434.33 0.68 434.66 0 435 C-0.06993164 434.41897018 -0.13986328 433.83794037 -0.21191406 433.23930359 C-7.94921536 345.61429825 -7.94921536 345.61429825 -47 269 C-47.515625 268.401875 -48.03125 267.80375 -48.5625 267.1875 C-54.82294184 260.42622281 -63.59514366 253.77488585 -72 250 C-72 249.34 -72 248.68 -72 248 C-73.0725 247.773125 -74.145 247.54625 -75.25 247.3125 C-82.26133451 245.56900651 -88.81214769 242.42662825 -95.38671875 239.484375 C-122.07815296 228.51924527 -152.61529474 225.32142607 -181.02099609 221.45117188 C-182.28637207 221.27650391 -183.55174805 221.10183594 -184.85546875 220.921875 C-186.5573938 220.69129395 -186.5573938 220.69129395 -188.29370117 220.45605469 C-191 220 -191 220 -193 219 C-194.41046115 218.80541042 -195.82749496 218.65698903 -197.24609375 218.53515625 C-198.08333984 218.45716797 -198.92058594 218.37917969 -199.78320312 218.29882812 C-201.54851732 218.14165151 -203.31414794 217.98798816 -205.08007812 217.83789062 C-205.91861328 217.75861328 -206.75714844 217.67933594 -207.62109375 217.59765625 C-208.3886499 217.53070557 -209.15620605 217.46375488 -209.94702148 217.39477539 C-212 217 -212 217 -215 215 C-208.74234125 214.03657507 -202.48414288 213.07671319 -196.22558594 212.11914062 C-194.10372011 211.79408337 -191.98197171 211.46825848 -189.86035156 211.14160156 C-169.69788986 208.03821983 -169.69788986 208.03821983 -160.0625 206.89453125 C-154.61197241 206.23714582 -149.32933936 205.36921925 -144 204.0625 C-138.22777439 202.71204783 -132.4595634 201.48690716 -126.625 200.4375 C-113.6681363 198.05477656 -102.20027906 194.36458723 -90.11328125 189.265625 C-86.18194005 187.66743861 -82.19620082 186.26247419 -78.1796875 184.89453125 C-75.84156191 184.09869342 -75.84156191 184.09869342 -74 182 C-72.68 182 -71.36 182 -70 182 C-70 181.34 -70 180.68 -70 180 C-68.45712116 178.95825306 -66.86199674 177.9937241 -65.25 177.0625 C-36.84108049 159.4256001 -23.34856999 127.89737978 -15.82421875 96.58251953 C-8.48806027 64.69543734 -4.04866108 32.44496941 0 0 Z " fill="#FBFBFB" transform="translate(311,98)"/>
<path d="M0 0 C6.06892629 -0.25287193 11.16200408 0.30167391 17 2 C11.85913339 5.42724441 6.99202204 5.1015597 1 5 C1 4.67 1 4.34 1 4 C2.65 4 4.3 4 6 4 C6 3.01 6 2.02 6 1 C4.02 1 2.04 1 0 1 C0 0.67 0 0.34 0 0 Z " fill="#B1B1B1" transform="translate(511,311)"/>
<path d="M0 0 C0 0.33 0 0.66 0 1 C-1.134375 1.12375 -2.26875 1.2475 -3.4375 1.375 C-5.2009375 1.684375 -5.2009375 1.684375 -7 2 C-7.33 2.66 -7.66 3.32 -8 4 C-9.4370809 4.05422947 -10.87475462 4.09289723 -12.3125 4.125 C-13.11300781 4.14820313 -13.91351563 4.17140625 -14.73828125 4.1953125 C-17 4 -17 4 -20 2 C-13.25846717 0.74158054 -6.86515862 -0.26404456 0 0 Z " fill="#D4D4D4" transform="translate(116,311)"/>
<path d="M0 0 C2.64 0 5.28 0 8 0 C7.01 1.485 7.01 1.485 6 3 C2.375 3.1875 2.375 3.1875 -1 3 C-0.67 2.01 -0.34 1.02 0 0 Z " fill="#575757" transform="translate(93,312)"/>
<path d="M0 0 C2.31 0 4.62 0 7 0 C7 0.99 7 1.98 7 3 C4.69 3 2.38 3 0 3 C0 2.01 0 1.02 0 0 Z " fill="#4C4C4C" transform="translate(525,312)"/>
<path d="M0 0 C0.33 0 0.66 0 1 0 C1.3125 2.25 1.3125 2.25 1 5 C-1.5 7.3125 -1.5 7.3125 -4 9 C-2.80100302 5.9168649 -1.52299523 2.93720508 0 0 Z " fill="#CCCCCC" transform="translate(278,240)"/>
</svg>
